<svg xmlns="http://www.w3.org/2000/svg" width="183" height="36" viewBox="0 0 183 36">
  <path fill="#7D868C" d="M2.6 28.7l-1.5 7.2h1l.6-3.3h5.9l.1-.8H2.9l.5-2.3h6l.2-.8M13.5 36c-.7 0-1.3 0-1.6-.1-.3-.1-.6-.2-.8-.4-.2-.2-.3-.5-.4-.8 0-.3 0-.8.1-1.3l1-4.7h.9l-1 4.7c-.1.4-.1.7-.1.8 0 .2 0 .3.1.4.1.2.2.3.5.4.2.1.6.1 1 .1h3c.4 0 .8 0 1-.1.3-.1.5-.2.6-.4.1-.1.2-.3.3-.4.1-.2.1-.5.2-.8v-.2l.9-4.5h.9l-.9 4.6c-.1.6-.3 1-.4 1.4-.2.4-.4.6-.7.8-.2.2-.6.3-.9.4-.1.1-.7.1-1.4.1h-2.3zM21.7 35.9l1.4-7.2h7.3l-.1.8h-6.4l-.5 2.2h6.1l-.1.9h-6.2l-.5 2.5h6.4l-.1.8M31.3 35.9l1.4-7.2h1l-1.3 6.4h5.7l-.2.8M49.1 35.9l.7-3-3.4-4.2h1.3l2.7 3.4 4.1-3.4h1.3l-5.1 4.2-.6 3M59.5 36c-.8 0-1.4 0-1.7-.1-.4-.1-.6-.2-.8-.4-.2-.2-.4-.5-.4-.8 0-.3 0-.8.1-1.3l.4-2c.1-.6.3-1.1.5-1.4.2-.4.4-.6.7-.8.3-.2.6-.3 1-.4.4-.1 1-.1 1.8-.1h2.5c.8 0 1.4 0 1.7.1.4.1.7.2.9.4.2.2.3.5.4.8 0 .4 0 .8-.1 1.4l-.4 2c-.1.6-.3 1-.5 1.4-.2.4-.4.6-.7.8-.3.2-.6.3-1 .4-.4.1-1 .1-1.8.1h-2.6zm4.2-6.6h-3.3c-.5 0-.9 0-1.1.1-.3.1-.5.2-.7.4-.1.1-.2.3-.3.5-.1.2-.2.5-.3.9v.1l-.4 1.8c-.1.4-.1.7-.1.9 0 .2 0 .3.1.5s.3.3.5.4c.2.1.6.1 1.1.1h3.3c.5 0 .9 0 1.1-.1.3-.1.5-.2.7-.4.1-.1.2-.3.3-.5.1-.2.2-.5.2-.8v-.2l.4-1.9c.1-.4.1-.7.1-.8 0-.2 0-.3-.1-.5s-.3-.3-.5-.4c-.2-.1-.5-.1-1-.1M71.1 36c-.7 0-1.3 0-1.6-.1-.3-.1-.6-.2-.8-.4-.2-.2-.3-.5-.4-.8 0-.3 0-.8.1-1.3l1-4.7h.9l-1 4.7c-.1.4-.1.7-.1.8 0 .2 0 .3.1.4.1.2.2.3.5.4.2.1.6.1 1 .1h3c.4 0 .8 0 1-.1.3-.1.5-.2.6-.4.1-.1.2-.3.3-.4.1-.2.1-.5.2-.8l.1-.2.9-4.5h.9l-.8 4.6c-.1.6-.3 1-.4 1.4-.2.4-.4.6-.7.8-.2.2-.6.3-.9.4-.4.1-1 .1-1.7.1h-2.2zM80.1 35.9h-.9l1.5-7.3H86c1.2 0 1.9.1 2.3.4.3.2.4.7.3 1.4l-.2.9c-.1.4-.3.8-.5 1s-.6.4-1.1.5c.4 0 .7.2.8.4.2.2.2.6.1 1l-.4 1.8h-.9l.3-1.6c.1-.5.1-.8-.1-1-.2-.2-.6-.3-1.4-.3h-4.5l-.6 2.8zm6-6.4h-4.7l-.6 2.8h4.7c.7 0 1.1-.1 1.4-.2.2-.2.4-.5.5-1l.1-.3c.1-.5.1-.8-.1-1-.2-.3-.6-.3-1.3-.3M94.9 35.9l5.8-7.3h1.2l2.8 7.3h-1l-.6-1.6h-5.9l-1.3 1.6h-1zm2.9-2.3h5l-1.7-4.2-3.3 4.2zM107.4 35.9h-.9l1.5-7.2h1.3l3.2 6.3 5.7-6.3h1.4l-1.5 7.2h-.9l1.3-6.4-5.8 6.4h-.7l-3.3-6.4M128.6 32c.5 0 .9.2 1 .4.2.2.2.6.1 1l-.2.8c-.1.6-.4 1.1-.9 1.3-.5.2-1.4.4-2.7.4h-5.1l1.5-7.3h5.3c.7 0 1.1 0 1.5.1.3 0 .5.1.7.2.2.1.3.3.4.5.1.2 0 .5-.1 1s-.3.9-.5 1.1c-.2.3-.5.4-1 .5m-1.3.6h-4.8l-.5 2.5h4.8c.7 0 1.2-.1 1.5-.2.3-.2.4-.5.5-1 .1-.6.1-.9-.1-1.1-.2-.2-.6-.2-1.4-.2m-4.2-3.1l-.5 2.3h4.2c1 0 1.6-.1 1.8-.2.2-.1.4-.4.5-.9.1-.3.1-.5.1-.6 0-.1-.1-.2-.2-.3-.1-.1-.3-.1-.5-.2H123.1zM132.6 35.9h-.9l1.5-7.2h.9M139.4 35.9h-.9l1.3-6.4h-3.7l.2-.8h8.2l-.1.8h-3.7M146.1 35.9h-.9l1.5-7.2h.9M152.2 36c-.8 0-1.4 0-1.7-.1-.4-.1-.6-.2-.8-.4-.2-.2-.4-.5-.4-.8 0-.3 0-.8.1-1.3l.4-2c.1-.6.3-1.1.5-1.4.2-.4.4-.6.7-.8.3-.2.6-.3 1-.4.4-.1 1-.1 1.8-.1h2.5c.8 0 1.4 0 1.7.1.4.1.7.2.9.4.2.2.3.5.4.8 0 .4 0 .8-.1 1.4l-.4 2c-.1.6-.3 1-.5 1.4-.2.4-.4.6-.7.8-.3.2-.6.3-1 .4-.4.1-1 .1-1.8.1h-2.6zm4.3-6.6h-3.3c-.5 0-.9 0-1.1.1-.3.1-.5.2-.7.4-.1.1-.2.3-.3.5-.1.2-.2.5-.3.9v.1l-.4 1.8c-.1.4-.1.7-.1.9 0 .2 0 .3.1.5s.3.3.5.4c.2.1.6.1 1.1.1h3.3c.5 0 .9 0 1.1-.1.3-.1.5-.2.7-.4.1-.1.2-.3.3-.5.1-.2.2-.5.2-.8v-.2l.4-1.9c.1-.4.1-.7.1-.8 0-.2 0-.3-.1-.5s-.3-.3-.5-.4c-.2-.1-.5-.1-1-.1M161.7 35.9h-1l1.5-7.2h1.5l5.3 6.4 1.4-6.4h.9l-1.5 7.2h-1.4l-5.4-6.5"/>
  <path fill="#005CB9" d="M44.1 15.6l-1.5 8h-6.2l1.5-8L33.6.5h6.6l1.2 5c.3 1.3.5 2.5.7 3.5h.1c.7-1.2 1.5-2.6 2.4-4L47.4.5h6.8L44.1 15.6zM59.8 16.5h-1l-1.3 7.1h-6.2L55.7.5c2.1-.1 4.4-.2 7.2-.2 4.5 0 7.8 2 7.8 6.4-.2 5.2-4.6 9.8-10.9 9.8m2-11h-.9l-1.1 5.7h.4c2.3 0 3.7-1.9 3.7-3.8 0-1-.6-1.9-2.1-1.9M83.6 14.2c.3.8.8 1.7 1.1 2.6l2.6 6.8h-7.2l-2.6-8.4h-.2l-1.6 8.4h-6.2L73.9.5c2.2-.1 4.9-.2 7.6-.2 5.5 0 7.9 2 7.9 5.6-.1 3.7-1.9 6.6-5.8 8.3m-3.3-8.6c-.5 0-1.1 0-1.3.1l-.9 5c.2 0 .7.1 1 .1 2.2 0 3.5-1.7 3.5-3.4 0-1.2-.7-1.8-2.3-1.8M98.2 24.1c-6.2 0-8.9-3.3-8.9-8.5 0-8.3 6-15.6 13.9-15.6 5.9 0 8.8 3.1 8.8 8.6 0 9-6.3 15.5-13.8 15.5m3.9-18.3c-4.1 0-6.2 4.6-6.2 8.6 0 2.5 1.1 3.8 3.2 3.8 3.8 0 6.2-4.4 6.2-8.9.1-1.9-.9-3.5-3.2-3.5M129 6h-4.9l-3.4 17.6h-6.2L117.9 6h-5L114 .5h16M143.9 5.9h-7l-.6 3.3h6.7l-1 5.2h-6.7l-.7 3.7h7l-1 5.5h-13.3L131.7.5H145M149.7 23.6h-6.3L147.8.5h6.3M172.3 23.6H165l-2.3-7.8c-.5-1.8-1-3.7-1.3-5.2-.1 1.4-.3 2.2-.5 3.7l-1.8 9.3h-6L157.5.5h7.4l2.1 6.8c.7 2.1 1.2 4.1 1.6 6 .1-1.6.4-3.4.7-4.8l1.5-8h6.1l-4.6 23.1zM24.6 10.6c-.1 0-1.7 3.9-2.7 6.1l-3.1 6.9H13l-.6-6.1c-.2-2.1-.3-6.8-.3-6.8-.5 2.3-2.4 13-2.4 13H3.5L8.3.5h8.6l.9 8c.2 1.6.2 3.2.2 5.2.7-2 1.4-3.5 2.3-5.3L24.2.5h8.1l-4.4 23.2h-5.6l2.3-13.1zM180.1.7c1 0 1.8.8 1.8 1.8s-.8 1.8-1.8 1.8-1.8-.8-1.8-1.8.8-1.8 1.8-1.8m1.4 1.8c0-.8-.7-1.5-1.5-1.5s-1.5.7-1.5 1.5.7 1.5 1.5 1.5c.9 0 1.5-.7 1.5-1.5m-2.2-1.1h.8c.5 0 .7.2.7.6 0 .4-.2.5-.6.6l.6.9h-.3l-.5-.8h-.3v.9h-.3V1.4zm.7 1c.3 0 .5 0 .5-.3s-.2-.3-.5-.3h-.4v.6h.4z"/>
</svg>