<svg xmlns="http://www.w3.org/2000/svg" width="90" height="12" viewBox="0 0 90 12">
  <g fill="#FFFFFF">
	<path d="M20.8 7.8l-.7 4H17l.8-4L15.7.2H19l.6 2.5c.2.7.3 1.2.3 1.8.3-.6.8-1.3 1.2-2L22.5.3h3.4l-5.1 7.5zM28.6 8.2h-.5l-.7 3.6h-3.1L26.5.3c1.1-.1 2.2-.1 3.6-.1 2.2 0 3.9 1 3.9 3.2 0 2.5-2.2 4.8-5.4 4.8m1-5.5h-.5l-.5 2.8h.2c1.1 0 1.9-.9 1.9-1.9 0-.4-.3-.9-1.1-.9M40.5 7.1c.2.4.4.9.5 1.3l1.3 3.4h-3.6l-1.3-4.2h-.1l-.8 4.2h-3.1L35.6.3c1.1-.1 2.5-.1 3.8-.1 2.7 0 3.9 1 3.9 2.8 0 1.8-.9 3.2-2.8 4.1m-1.6-4.3h-.6l-.5 2.5h.5c1.1 0 1.7-.9 1.7-1.7 0-.5-.4-.8-1.1-.8M47.8 12c-3.1 0-4.5-1.7-4.5-4.3 0-4.1 3-7.7 6.9-7.7 2.9 0 4.4 1.6 4.4 4.3 0 4.5-3.1 7.7-6.8 7.7m1.9-9.1c-2 0-3.1 2.3-3.1 4.3 0 1.3.5 1.9 1.6 1.9 1.9 0 3.1-2.2 3.1-4.4 0-1-.5-1.8-1.6-1.8M63.1 3h-2.5L59 11.8h-3.1L57.5 3h-2.4l.5-2.8h8M70.5 2.9H67l-.3 1.7H70l-.5 2.6h-3.3L65.9 9h3.5l-.6 2.8h-6.6L64.4.2H71M73.4 11.8h-3.1L72.4.2h3.2M84.6 11.8H81l-1.1-3.9c-.3-.9-.5-1.8-.7-2.6-.1.7-.2 1.1-.3 1.8l-.9 4.7h-3L77.2.3h3.7l1 3.4c.3 1 .6 2.1.8 3 .1-.8.2-1.7.3-2.4l.8-4h3l-2.2 11.5zM11.1 5.3s-.9 2-1.3 3l-1.6 3.4H5.3l-.3-3c-.1-1.1-.1-3.4-.1-3.4-.3 1.1-1.2 6.5-1.2 6.5h-3L3 .2h4.3l.4 4c.1.8.1 1.6.1 2.6.4-1 .7-1.8 1.1-2.7L10.8.2h4l-2.2 11.6H9.8l1.3-6.5zM88.5.3c.5 0 .9.4.9.9s-.4.9-.9.9-.9-.4-.9-.9.4-.9.9-.9m.7.9c0-.4-.3-.8-.7-.8-.4 0-.7.3-.7.8 0 .4.3.8.7.8.4 0 .7-.3.7-.8M88.1.7h.4c.2 0 .4.1.4.3 0 .2-.1.3-.3.3l.3.5h-.2l-.3-.4h-.2v.4H88V.7zm.4.5c.1 0 .3 0 .3-.2 0-.1-.1-.2-.2-.2h-.2v.3h.1z"/>
  </g>
</svg>